<svg version="1.1" id="Capa_1" xmlns="http://www.w3.org/2000/svg" x="0px" y="0px" viewBox="0 0 480 480">
<g>
	<g>
		<g>
			<path d="M40,48v64c0,4.418,3.582,8,8,8h64c4.418,0,8-3.582,8-8V48c0-4.418-3.582-8-8-8H48C43.582,40,40,43.582,40,48z M56,56h48
				v48H56V56z"/>
			<path d="M368,120h64c4.418,0,8-3.582,8-8V48c0-4.418-3.582-8-8-8h-64c-4.418,0-8,3.582-8,8v64C360,116.418,363.582,120,368,120z
				 M376,56h48v48h-48V56z"/>
			<path d="M112,360H48c-4.418,0-8,3.582-8,8v64c0,4.418,3.582,8,8,8h64c4.418,0,8-3.582,8-8v-64C120,363.582,116.418,360,112,360z
				 M104,424H56v-48h48V424z"/>
			<rect x="72" y="72" width="16" height="16"/>
			<path d="M16,16h64V0H8C3.582,0,0,3.582,0,8v72h16V16z"/>
			<path d="M16,400H0v72c0,4.418,3.582,8,8,8h72v-16H16V400z"/>
			<path d="M472,0h-72v16h64v64h16V8C480,3.582,476.418,0,472,0z"/>
			<path d="M464,464h-48v16h56c4.418,0,8-3.582,8-8v-72h-16V464z"/>
			<rect x="392" y="72" width="16" height="16"/>
			<rect x="72" y="392" width="16" height="16"/>
			<rect x="136" y="72" width="16" height="16"/>
			<rect x="248" y="72" width="16" height="16"/>
			<polygon points="280,72 280,104 312,104 312,88 296,88 296,72 			"/>
			<polygon points="168,72 168,88 184,88 184,72 184,56 312,56 312,72 328,72 328,56 328,40 152,40 152,56 168,56 			"/>
			<rect x="136" y="104" width="16" height="32"/>
			<rect x="152" y="136" width="16" height="16"/>
			<polygon points="168,104 168,120 184,120 184,136 216,136 216,104 224,104 224,88 232,88 232,72 200,72 200,88 208,88 208,104 
							"/>
			<rect x="232" y="120" width="16" height="16"/>
			<polygon points="320,200 336,200 336,184 352,184 352,168 320,168 			"/>
			<rect x="248" y="104" width="16" height="16"/>
			<polygon points="200,376 200,360 184,360 184,344 168,344 168,376 			"/>
			<rect x="328" y="88" width="16" height="16"/>
			<rect x="320" y="120" width="32" height="32"/>
			<polygon points="40,328 56,328 56,264 72,264 72,248 40,248 			"/>
			<rect x="40" y="136" width="80" height="16"/>
			<polygon points="72,168 40,168 40,216 56,216 56,200 72,200 			"/>
			<polygon points="200,248 200,232 216,232 216,200 232,200 232,184 248,184 248,168 232,168 232,152 216,152 216,168 216,184 
				200,184 200,168 168,168 168,200 184,200 184,248 			"/>
			<polygon points="136,440 152,440 152,424 176,424 176,440 192,440 192,424 200,424 200,408 152,408 152,392 136,392 			"/>
			<polygon points="304,272 304,256 320,256 320,240 336,240 336,208 288,208 288,240 272,240 272,256 288,256 288,272 			"/>
			<polygon points="280,176 296,176 296,160 280,160 280,144 264,144 264,192 280,192 			"/>
			<rect x="88" y="168" width="32" height="16"/>
			<rect x="136" y="168" width="16" height="16"/>
			<rect x="88" y="248" width="16" height="16"/>
			<rect x="136" y="264" width="16" height="16"/>
			<rect x="152" y="248" width="16" height="16"/>
			<rect x="152" y="376" width="16" height="16"/>
			<rect x="72" y="216" width="16" height="16"/>
			<rect x="88" y="200" width="32" height="16"/>
			<rect x="120" y="216" width="16" height="16"/>
			<rect x="248" y="208" width="16" height="16"/>
			<rect x="232" y="224" width="16" height="16"/>
			<rect x="256" y="264" width="16" height="16"/>
			<rect x="360" y="248" width="32" height="16"/>
			<rect x="392" y="264" width="16" height="16"/>
			<rect x="224" y="264" width="16" height="16"/>
			<polygon points="216,264 184,264 184,280 168,280 168,296 200,296 200,280 216,280 			"/>
			<polygon points="232,424 216,424 216,440 248,440 248,424 264,424 264,408 232,408 			"/>
			<polygon points="312,408 312,424 296,424 296,440 328,440 328,424 344,424 344,408 			"/>
			<polygon points="384,168 384,152 400,152 400,136 368,136 368,152 352,152 352,168 			"/>
			<rect x="240" y="320" width="16" height="16"/>
			<rect x="240" y="352" width="16" height="16"/>
			<rect x="216" y="392" width="16" height="16"/>
			<polygon points="224,320 224,304 208,304 208,320 208,336 224,336 			"/>
			<rect x="256" y="368" width="16" height="16"/>
			<polygon points="376,424 344,424 344,440 392,440 392,408 376,408 			"/>
			<rect x="376" y="376" width="16" height="16"/>
			<rect x="344" y="376" width="16" height="16"/>
			<rect x="312" y="376" width="16" height="16"/>
			<rect x="328" y="360" width="16" height="16"/>
			<rect x="280" y="408" width="16" height="16"/>
			<rect x="136" y="232" width="16" height="16"/>
			<polygon points="424,440 440,440 440,392 408,392 408,408 424,408 			"/>
			<rect x="408" y="360" width="16" height="16"/>
			<polygon points="440,296 424,296 424,328 408,328 408,344 440,344 			"/>
			<rect x="424" y="264" width="16" height="16"/>
			<polygon points="440,136 424,136 424,208 392,208 392,192 360,192 360,224 424,224 424,248 440,248 			"/>
			<polygon points="320,352 320,320 304,320 304,288 256,288 256,320 272,320 272,352 			"/>
			<polygon points="136,280 72,280 72,344 104,344 104,328 88,328 88,312 120,312 120,360 136,360 136,344 168,344 168,328 152,328 
				152,312 168,312 168,296 136,296 			"/>
			<polygon points="408,296 376,296 376,280 344,280 344,312 360,312 360,360 376,360 376,344 392,344 392,312 408,312 			"/>
		</g>
	</g>
</g>
<g>
</g>
<g>
</g>
<g>
</g>
<g>
</g>
<g>
</g>
<g>
</g>
<g>
</g>
<g>
</g>
<g>
</g>
<g>
</g>
<g>
</g>
<g>
</g>
<g>
</g>
<g>
</g>
<g>
</g>
</svg>
