<?xml version="1.0" encoding="iso-8859-1"?>
<!-- Generator: Adobe Illustrator 19.0.0, SVG Export Plug-In . SVG Version: 6.00 Build 0)  -->
<svg version="1.1" id="Capa_1" xmlns="http://www.w3.org/2000/svg" xmlns:xlink="http://www.w3.org/1999/xlink" x="0px" y="0px"
	 viewBox="0 0 511.999 511.999" style="enable-background:new 0 0 511.999 511.999;" xml:space="preserve">
<path style="fill:#FDB62F;" d="M477.819,93.908H68.26c-28.277,0-51.195,22.918-51.195,51.195s22.918,51.195,51.195,51.195h409.559
	V93.908z"/>
<g>
	<rect x="76.792" y="119.539" style="fill:#F46B27;" width="17.065" height="17.065"/>
	<path style="fill:#F46B27;" d="M59.727,136.57v-17.065c-12.824-0.026-25.359,3.771-36.007,10.922l-5.461,3.584
		c-0.794,3.643-1.195,7.364-1.195,11.092c0,3.439,0.341,6.869,1.024,10.239l15.102-10.751
		C41.058,139.369,50.282,136.578,59.727,136.57z"/>
</g>
<rect x="39.679" y="80.529" transform="matrix(-0.7071 0.7071 -0.7071 -0.7071 383.6358 122.7983)" style="fill:#638724;" width="253.412" height="120.648"/>
<polygon style="fill:#6B962A;" points="426.624,162.167 273.039,8.583 85.325,196.297 51.195,230.427 204.78,384.012 "/>
<rect x="156.323" y="81.606" transform="matrix(-0.7071 0.7071 -0.7071 -0.7071 663.1429 117.7942)" style="fill:#88B337;" width="301.706" height="229.266"/>
<g>
	<circle style="fill:#D9D9D9;" cx="294.371" cy="226.161" r="72.526"/>
	<path style="fill:#D9D9D9;" d="M452.221,128.037c-17.935,17.969-22.748,45.239-12.031,68.26l10.666,18.43l44.028-44.028
		L452.221,128.037z"/>
	<path style="fill:#D9D9D9;" d="M375.429,51.245L332.767,8.583l-42.662,42.662c23.558,23.558,61.75,23.567,85.308,0.017
		C375.421,51.254,375.421,51.245,375.429,51.245z"/>
</g>
<path style="fill:#75462E;" d="M68.26,196.297c-28.277,0-51.195-22.918-51.195-51.195v307.169c0,28.277,22.918,51.195,51.195,51.195
	l0,0h409.559V196.297H68.26z"/>
<path style="fill:#6B402A;" d="M477.819,196.297H364.166C285.155,334.609,167.237,440.07,83.533,503.467h394.286V196.297z"/>
<path style="fill:#5C3724;" d="M494.884,401.077h-102.39c-28.277,0-51.195-22.918-51.195-51.195l0,0
	c0-28.277,22.918-51.195,51.195-51.195h102.39V401.077z"/>
<circle style="fill:#D9D9D9;" cx="392.494" cy="349.916" r="17.065"/>
<g>
	<rect x="435.156" y="221.929" style="fill:#3B2317;" width="42.662" height="17.065"/>
	<rect x="383.962" y="221.929" style="fill:#3B2317;" width="34.13" height="17.065"/>
	<rect x="332.767" y="221.929" style="fill:#3B2317;" width="34.13" height="17.065"/>
	<rect x="281.572" y="221.929" style="fill:#3B2317;" width="34.13" height="17.065"/>
	<rect x="230.377" y="221.929" style="fill:#3B2317;" width="34.13" height="17.065"/>
	<rect x="179.182" y="221.929" style="fill:#3B2317;" width="34.13" height="17.065"/>
	<rect x="127.987" y="221.929" style="fill:#3B2317;" width="34.13" height="17.065"/>
	<rect x="76.792" y="221.929" style="fill:#3B2317;" width="34.13" height="17.065"/>
	<path style="fill:#3B2317;" d="M59.727,238.96v-17.065c-9.445-0.009-18.669-2.799-26.536-8.021l-16.126-11.519v21.246l6.655,4.437
		C34.369,235.171,46.903,238.977,59.727,238.96z"/>
	<rect x="435.156" y="460.838" style="fill:#3B2317;" width="42.662" height="17.065"/>
	<rect x="383.962" y="460.838" style="fill:#3B2317;" width="34.13" height="17.065"/>
	<rect x="332.767" y="460.838" style="fill:#3B2317;" width="34.13" height="17.065"/>
	<rect x="281.572" y="460.838" style="fill:#3B2317;" width="34.13" height="17.065"/>
	<rect x="230.377" y="460.838" style="fill:#3B2317;" width="34.13" height="17.065"/>
	<rect x="179.182" y="460.838" style="fill:#3B2317;" width="34.13" height="17.065"/>
	<rect x="127.987" y="460.838" style="fill:#3B2317;" width="34.13" height="17.065"/>
	<rect x="76.792" y="460.838" style="fill:#3B2317;" width="34.13" height="17.065"/>
	<path style="fill:#3B2317;" d="M59.727,477.869v-17.065c-9.445-0.009-18.669-2.799-26.536-8.021l-16.126-11.519v11.007
		c0,3.729,0.401,7.449,1.195,11.092l5.461,3.584C34.369,474.081,46.903,477.886,59.727,477.869z"/>
</g>
<path style="fill:#543221;" d="M391.641,401.077h103.243v-102.39h-22.44C451.121,336.895,423.842,371.452,391.641,401.077z"/>
<path d="M366.897,349.882c0,14.138,11.459,25.597,25.597,25.597s25.597-11.459,25.597-25.597s-11.459-25.597-25.597-25.597
	S366.897,335.744,366.897,349.882z M401.027,349.882c0,4.71-3.823,8.532-8.533,8.532c-4.71,0-8.532-3.823-8.532-8.532
	c0-4.71,3.823-8.533,8.532-8.533C397.204,341.349,401.027,345.172,401.027,349.882z"/>
<path d="M500.942,164.642l-14.591-14.505V93.907c0-4.71-3.823-8.532-8.533-8.532H421.59l-82.765-82.85
	c-3.319-3.345-8.72-3.37-12.065-0.051c-0.017,0.017-0.034,0.034-0.051,0.051l-23.806,23.891L279.097,2.525
	c-3.319-3.345-8.72-3.37-12.065-0.051c-0.017,0.017-0.034,0.034-0.051,0.051l-23.806,23.891L219.37,2.525
	c-3.319-3.345-8.72-3.37-12.065-0.051c-0.017,0.017-0.034,0.034-0.051,0.051l-82.765,82.85H68.26
	c-32.987,0-59.727,26.741-59.727,59.727v307.169c0,32.987,26.741,59.727,59.727,59.727h409.559c4.71,0,8.533-3.823,8.533-8.533
	v-93.857h8.532c4.71,0,8.532-3.823,8.532-8.533v-102.39c0-4.71-3.823-8.533-8.532-8.533h-8.532v-93.857
	c-0.017-1.382-0.393-2.739-1.109-3.925l15.7-15.614c3.345-3.319,3.37-8.72,0.051-12.065
	C500.976,164.676,500.959,164.659,500.942,164.642z M469.286,102.44v30.632l-30.632-30.632H469.286z M465.788,187.765h-19.71
	c-5.521-15.853-3.038-33.396,6.655-47.099l30.12,30.034L465.788,187.765z M365.531,187.765
	c-21.041-39.301-69.958-54.104-109.258-33.063c-14.044,7.517-25.546,19.019-33.063,33.063h-57.594l124.916-124.83
	c24.838,19.326,59.633,19.326,84.472,0l65.615,65.615c-13.097,16.749-17.637,38.644-12.287,59.215H365.531z M345.395,187.765
	h-102.39c20.888-28.277,60.743-34.258,89.019-13.37C337.118,178.157,341.632,182.662,345.395,187.765z M332.767,20.614
	l29.949,30.034c-17.85,12.816-41.877,12.816-59.727,0L332.767,20.614z M273.039,20.614l17.833,17.833L141.554,187.765h-35.666
	L273.039,20.614z M213.312,20.614l17.833,17.833L81.826,187.765H68.26c-6.229-0.034-12.372-1.433-18.004-4.096L213.312,20.614z
	 M68.26,102.44h39.164l-17.065,17.065H76.792v13.567l-40.273,40.273c-5.922-6.698-9.599-15.085-10.495-23.976l7.167-4.778
	c7.867-5.222,17.091-8.012,26.536-8.021v-17.065c-10.444,0.026-20.725,2.602-29.949,7.509C36.775,112.065,51.758,102.5,68.26,102.44
	z M486.351,392.544h-93.857c-23.558,0-42.662-19.104-42.662-42.662c0-23.558,19.104-42.662,42.662-42.662h93.857V392.544z
	 M392.494,290.155c-32.987,0-59.727,26.741-59.727,59.727s26.741,59.727,59.727,59.727h76.792v51.195h-34.13v17.065h34.13v17.065
	H68.26c-16.502-0.06-31.485-9.633-38.481-24.574c9.224,4.898,19.505,7.483,29.949,7.509v-17.065
	c-9.445-0.009-18.669-2.799-26.536-8.021l-7.594-5.12V229.147c10.248,6.374,22.065,9.77,34.13,9.812v-17.065
	c-9.445-0.009-18.669-2.799-26.536-8.021l-7.594-5.119v-21.928l0,0l2.048,1.962l2.218,1.962c0.734,0.614,1.502,1.186,2.304,1.707
	l2.304,1.792l2.56,1.536c0.768,0.529,1.561,1.015,2.389,1.451l3.242,1.621l2.474,1.195l2.986,1.109l2.56,0.939l3.328,0.853
	l2.389,0.683l4.01,0.597c0.657,0.043,1.305,0.043,1.962,0c1.945,0.316,3.916,0.512,5.887,0.597h401.027v17.065h-34.13v17.065h34.13
	v51.195L392.494,290.155L392.494,290.155z"/>
<rect x="383.962" y="221.929" width="34.13" height="17.065"/>
<rect x="332.767" y="221.929" width="34.13" height="17.065"/>
<rect x="281.572" y="221.929" width="34.13" height="17.065"/>
<rect x="230.377" y="221.929" width="34.13" height="17.065"/>
<rect x="179.182" y="221.929" width="34.13" height="17.065"/>
<rect x="127.987" y="221.929" width="34.13" height="17.065"/>
<rect x="76.792" y="221.929" width="34.13" height="17.065"/>
<rect x="383.962" y="460.838" width="34.13" height="17.065"/>
<rect x="332.767" y="460.838" width="34.13" height="17.065"/>
<rect x="281.572" y="460.838" width="34.13" height="17.065"/>
<rect x="230.377" y="460.838" width="34.13" height="17.065"/>
<rect x="179.182" y="460.838" width="34.13" height="17.065"/>
<rect x="127.987" y="460.838" width="34.13" height="17.065"/>
<rect x="76.792" y="460.838" width="34.13" height="17.065"/>
<g>
</g>
<g>
</g>
<g>
</g>
<g>
</g>
<g>
</g>
<g>
</g>
<g>
</g>
<g>
</g>
<g>
</g>
<g>
</g>
<g>
</g>
<g>
</g>
<g>
</g>
<g>
</g>
<g>
</g>
</svg>
